<svg xmlns="http://www.w3.org/2000/svg" viewBox="0 0 82.525 33.634"><defs><style>.a{fill:#d9b787;}</style></defs><path class="a" d="M12.69-4.212a.232.232,0,0,1,.324.18.251.251,0,0,1-.18.342q-1.44.45-2.844,1.026a2.777,2.777,0,0,1-.2,1.269A4,4,0,0,1,9.018-.18a11.384,11.384,0,0,1-.981.972q-.459.4-1.053.846A23.453,23.453,0,0,1,1.782,4.5q-.018.018-.441.207t-.693.279q-.27.09-.666.2a1.627,1.627,0,0,1-.675.063.6.6,0,0,1-.423-.261.54.54,0,0,1-.126-.306.833.833,0,0,1,.063-.387A3.972,3.972,0,0,1-1,3.9a2.655,2.655,0,0,1,.288-.423q.189-.234.333-.4t.369-.4q.225-.225.342-.333l.315-.288.216-.2A15.2,15.2,0,0,1,2.736.4Q3.834-.342,4.5-.72T6.588-1.854A23.37,23.37,0,0,1,9.18-3.06a2.921,2.921,0,0,0-.63-.99,10.269,10.269,0,0,0-3.708-2.3q-.576-.234-1.818-.693T1.152-7.758l-.9-.387a5.822,5.822,0,0,1-.738-.414A2.922,2.922,0,0,1-1.224-9.2a1.794,1.794,0,0,1-.441-1.035,2.3,2.3,0,0,1,.144-1.044,4.5,4.5,0,0,1,.612-1.035,8.858,8.858,0,0,1,.765-.9q.342-.342.81-.756a12.25,12.25,0,0,1,6.066-3.006q.81-.144,1.575-.207A12.535,12.535,0,0,1,9.963-17.2a5.213,5.213,0,0,1,1.665.351,3.4,3.4,0,0,1,1.278.855,2.964,2.964,0,0,1,.693,1.26,3.6,3.6,0,0,1,.063,1.5,10.6,10.6,0,0,1-.315,1.413q-.189.621-.513,1.395a.165.165,0,0,1-.126.108.171.171,0,0,1-.153-.036.116.116,0,0,1-.027-.144q.27-.7.414-1.17t.288-1.152a3.625,3.625,0,0,0,.054-1.287,2.949,2.949,0,0,0-.4-1.107q-1.1-1.764-5.076-1.314a11.836,11.836,0,0,0-4.329,1.359,11.478,11.478,0,0,0-3.5,2.871q-.324.414-.5.684a4.1,4.1,0,0,0-.351.675,1.169,1.169,0,0,0-.072.774,1.553,1.553,0,0,0,.459.711A6.471,6.471,0,0,0,1.1-8.568q.7.324,2.043.81t1.9.72q.774.324,1.386.621a14.638,14.638,0,0,1,1.359.765A5.9,5.9,0,0,1,9.063-4.59a3.763,3.763,0,0,1,.765,1.26Q11.232-3.834,12.69-4.212ZM9.054-1.422a2.307,2.307,0,0,0,.252-.954A31.72,31.72,0,0,0,5.814-.612q-.09.054-.306.162Q4.482.162,3.915.5T2.5,1.431a11.5,11.5,0,0,0-1.476,1.2A9.788,9.788,0,0,0-.108,3.942a3.128,3.128,0,0,0-.4.594.507.507,0,0,0,.225-.018q.135-.036.315-.1a1.635,1.635,0,0,1,.2-.063,17.881,17.881,0,0,0,2.214-.864A18.746,18.746,0,0,0,7.866.054,6.5,6.5,0,0,0,9.054-1.422ZM14.8-1.836a.172.172,0,0,1,.2.1.267.267,0,0,1,0,.234.233.233,0,0,1-.2.135,1.105,1.105,0,0,1-1.152-.468q-.378.558-.468.7-.018.018-.234.4a3.031,3.031,0,0,1-.414.585.561.561,0,0,1-.4.207Q11.664,0,11.709-.675a6.286,6.286,0,0,1,.27-1.413,4.951,4.951,0,0,1,.369-.972.134.134,0,0,1,.144-.054.1.1,0,0,1,.09.108,2.8,2.8,0,0,1-.027.378q-.027.2-.054.351t-.072.36q-.045.207-.081.351,0,.09-.009.36t-.027.4a.622.622,0,0,1,.108-.144q.054-.09,1.1-1.494V-2.5A2.455,2.455,0,0,1,13.653-3a3.333,3.333,0,0,1,.261-.531.688.688,0,0,1,.369-.333.546.546,0,0,1,.477.135.179.179,0,0,1,.036.27q-.288.414-.756,1.08Q14.058-1.8,14.8-1.836Zm5.526-1.17a.224.224,0,0,1,.342-.009q.2.153.072.333-.45.576-.882,1.044a7.349,7.349,0,0,1-1.107.954,2.619,2.619,0,0,1-1.251.54Q16.9-.09,16.7-.432a2.081,2.081,0,0,1-.216-.972q-.9,1.476-1.62,1.62-.5.108-.657-.207a1.432,1.432,0,0,1-.063-.855,3.878,3.878,0,0,1,.639-1.431,4.34,4.34,0,0,1,1.233-1.26,1.116,1.116,0,0,1,1.4.081q.09.072.009.18t-.171.036A.915.915,0,0,0,16.83-3.4a.661.661,0,0,0-.423.117q-.207.135-.369.261a2,2,0,0,0-.351.378q-.189.252-.27.369t-.207.333Q14.436-.738,14.652-.5a.265.265,0,0,0,.189.036.564.564,0,0,0,.243-.144,3.06,3.06,0,0,0,.279-.279q.135-.153.3-.369t.288-.4q.126-.18.252-.369t.189-.288a1.968,1.968,0,0,0,.1-.171.246.246,0,0,1,.27-.126.234.234,0,0,1,.234.2,4.131,4.131,0,0,1,.018.459,3.622,3.622,0,0,0,.018.441.712.712,0,0,0,.306.5.61.61,0,0,0,.459.054,1.513,1.513,0,0,0,.5-.243A10.387,10.387,0,0,0,20.322-3.006Zm.756-3.024a.151.151,0,0,1-.216-.045.133.133,0,0,1,.018-.207A2.278,2.278,0,0,1,21.96-6.8a.206.206,0,0,1,.189.063.188.188,0,0,1,.054.189.156.156,0,0,1-.135.126A3.872,3.872,0,0,0,21.078-6.03Zm5.6,7.812a.217.217,0,0,1,.207.117.249.249,0,0,1,.009.234.214.214,0,0,1-.216.117,16.689,16.689,0,0,0-8.3,2.088q-.594,1.368-1.026,2.349T16.326,8.874q-.594,1.206-1.224,2.3t-1.3,2.079q-.216.306-.432.585t-.567.675a3.723,3.723,0,0,1-.684.621,3.08,3.08,0,0,1-.684.351.806.806,0,0,1-.684-.054,1.525,1.525,0,0,1-.585-.648Q8.712,12.006,13.464,7.2a19.867,19.867,0,0,1,4.59-3.474q.414-.954.738-1.764.81-2.016,1.35-3.528.054-.126.171-.4t.2-.522q.081-.243.135-.459a.147.147,0,0,1-.153-.063.14.14,0,0,1-.009-.171q.144-.234.306-.45a.2.2,0,0,1,.243-.045.214.214,0,0,1,.135.207,2.078,2.078,0,0,1-.045.675,6,6,0,0,1-.171.657q-.09.27-.261.711t-.225.6q-.5,1.422-1.674,4.158A14.728,14.728,0,0,1,26.676,1.782ZM14.742,10.494q1.476-2.646,2.844-5.706A19.075,19.075,0,0,0,13.194,8.5a11.5,11.5,0,0,0-2.52,4.122,2.978,2.978,0,0,0-.144.738,2.613,2.613,0,0,0,.09.9.747.747,0,0,0,.45.576.163.163,0,0,0,.18.036.592.592,0,0,1,.18-.036.368.368,0,0,0,.189-.081l.18-.126a1.514,1.514,0,0,0,.171-.153q.108-.108.171-.162a1.58,1.58,0,0,0,.162-.171q.1-.117.135-.162l.117-.144a.965.965,0,0,0,.1-.135A22.562,22.562,0,0,0,14.742,10.494ZM26.676-2.322a.2.2,0,0,1,.315-.018.226.226,0,0,1,.081.306Q25.938-.108,25-.414a.867.867,0,0,1-.648-.774Q23.418.306,22.536.036a1,1,0,0,1-.522-.369A.826.826,0,0,1,21.888-.9a3.314,3.314,0,0,1,.144-.657,3.447,3.447,0,0,1,.315-.684q.207-.351.36-.594t.3-.441a.1.1,0,0,1,.117-.027q.063.027.027.1a5.781,5.781,0,0,0-.63,1.746q-.2,1.026.36.936Q22.95-.54,23-.558a1.982,1.982,0,0,0,.972-.954A9.441,9.441,0,0,0,24.714-3.1a.237.237,0,0,1,.324-.171.222.222,0,0,1,.18.315,1.4,1.4,0,0,1-.054.225q-.054.189-.1.342t-.09.369a1.885,1.885,0,0,0-.045.378,2.694,2.694,0,0,0,.018.315.358.358,0,0,0,.108.234.336.336,0,0,0,.234.081.685.685,0,0,0,.387-.171,2.178,2.178,0,0,0,.378-.36L26.424-2Q26.64-2.268,26.676-2.322ZM29.3-3.708q.576.468.018,2.358a11.089,11.089,0,0,1-1.638,3.258.241.241,0,0,1-.4-.009.247.247,0,0,1,0-.225,15.318,15.318,0,0,0,1.1-2.16q.036-.072.153-.351t.171-.423q.054-.144.135-.387a2.465,2.465,0,0,0,.108-.441,1.472,1.472,0,0,0,.009-.36q-.072-.9-.864.054l-.162.216q-.072.09-.108.144A11.084,11.084,0,0,0,26.64-.162a.3.3,0,0,1-.423.135.282.282,0,0,1-.189-.387q.09-.234.252-.72t.261-.774q.1-.288.27-.684a4.781,4.781,0,0,1,.369-.7.152.152,0,0,1,.18-.063q.126.027.108.135-.036.306-.108.666Q28.638-4.23,29.3-3.708Zm6.372.7a.224.224,0,0,1,.342-.009q.2.153.072.333-.45.576-.882,1.044A7.349,7.349,0,0,1,34.1-.684a2.619,2.619,0,0,1-1.251.54q-.594.054-.792-.288a2.081,2.081,0,0,1-.216-.972q-.9,1.476-1.62,1.62-.5.108-.657-.207A1.432,1.432,0,0,1,29.5-.846a3.878,3.878,0,0,1,.639-1.431,4.34,4.34,0,0,1,1.233-1.26,1.116,1.116,0,0,1,1.4.081q.09.072.009.18t-.171.036a.915.915,0,0,0-.432-.162.661.661,0,0,0-.423.117q-.207.135-.369.261a2,2,0,0,0-.351.378q-.189.252-.27.369t-.207.333Q29.79-.738,30.006-.5a.265.265,0,0,0,.189.036.564.564,0,0,0,.243-.144,3.06,3.06,0,0,0,.279-.279q.135-.153.3-.369t.288-.4q.126-.18.252-.369t.189-.288a1.968,1.968,0,0,0,.1-.171.246.246,0,0,1,.27-.126.234.234,0,0,1,.234.2,4.13,4.13,0,0,1,.018.459,3.623,3.623,0,0,0,.018.441.712.712,0,0,0,.306.5.61.61,0,0,0,.459.054,1.513,1.513,0,0,0,.5-.243A10.387,10.387,0,0,0,35.676-3.006Zm2.52.378q.216-.162.4.081t-.018.405q-.27.252-.837.756t-.855.756A3.046,3.046,0,0,1,37.1.864a1.616,1.616,0,0,1-.684,1.179,2.327,2.327,0,0,1-1.386.423.735.735,0,0,1-.657-.279.856.856,0,0,1-.126-.648A2.1,2.1,0,0,1,34.524.81,8.075,8.075,0,0,1,35.946-.846q-.162-.288-.234-.441a3.712,3.712,0,0,1-.153-.4,1.338,1.338,0,0,1-.072-.477,1.631,1.631,0,0,1,.1-.486,3.32,3.32,0,0,1,1.3-1.584.2.2,0,0,1,.3.054.223.223,0,0,1-.009.306l-.135.144q-.117.126-.153.171t-.144.162a2.078,2.078,0,0,0-.153.18q-.045.063-.117.18t-.117.2a1.883,1.883,0,0,0-.09.189.98.98,0,0,0-.063.216A1.455,1.455,0,0,0,36.5-1.314Q36.72-1.494,38.2-2.628Zm-2.448,4.3q.936-.468.54-1.746-.324.306-.468.45l-.225.216a3.308,3.308,0,0,0-.3.315,1.148,1.148,0,0,0-.162.261q-.216.432-.117.567a.271.271,0,0,0,.279.108A1.481,1.481,0,0,0,35.748,1.674ZM55.494-4.212a.232.232,0,0,1,.324.18.251.251,0,0,1-.18.342q-1.44.45-2.844,1.026a2.777,2.777,0,0,1-.2,1.269A4,4,0,0,1,51.822-.18a11.384,11.384,0,0,1-.981.972q-.459.4-1.053.846a23.454,23.454,0,0,1-5.2,2.862q-.018.018-.441.207t-.693.279q-.27.09-.666.2a1.627,1.627,0,0,1-.675.063.6.6,0,0,1-.423-.261.54.54,0,0,1-.126-.306.833.833,0,0,1,.063-.387,3.972,3.972,0,0,1,.18-.4,2.655,2.655,0,0,1,.288-.423q.189-.234.333-.4t.369-.4q.225-.225.342-.333l.315-.288q.2-.18.216-.2A15.2,15.2,0,0,1,45.54.4Q46.638-.342,47.3-.72t2.088-1.134A23.37,23.37,0,0,1,51.984-3.06a2.921,2.921,0,0,0-.63-.99,10.269,10.269,0,0,0-3.708-2.3q-.576-.234-1.818-.693t-1.872-.711l-.9-.387a5.822,5.822,0,0,1-.738-.414A2.922,2.922,0,0,1,41.58-9.2a1.794,1.794,0,0,1-.441-1.035,2.3,2.3,0,0,1,.144-1.044,4.5,4.5,0,0,1,.612-1.035,8.858,8.858,0,0,1,.765-.9q.342-.342.81-.756a12.25,12.25,0,0,1,6.066-3.006q.81-.144,1.575-.207a12.535,12.535,0,0,1,1.656-.018,5.213,5.213,0,0,1,1.665.351,3.4,3.4,0,0,1,1.278.855,2.964,2.964,0,0,1,.693,1.26,3.6,3.6,0,0,1,.063,1.5,10.6,10.6,0,0,1-.315,1.413q-.189.621-.513,1.395a.165.165,0,0,1-.126.108.171.171,0,0,1-.153-.036.116.116,0,0,1-.027-.144q.27-.7.414-1.17t.288-1.152a3.625,3.625,0,0,0,.054-1.287,2.949,2.949,0,0,0-.4-1.107q-1.1-1.764-5.076-1.314a11.836,11.836,0,0,0-4.329,1.359,11.478,11.478,0,0,0-3.5,2.871q-.324.414-.5.684a4.1,4.1,0,0,0-.351.675,1.17,1.17,0,0,0-.072.774,1.553,1.553,0,0,0,.459.711,6.471,6.471,0,0,0,1.584.882q.7.324,2.043.81t1.9.72q.774.324,1.386.621a14.637,14.637,0,0,1,1.359.765A5.9,5.9,0,0,1,51.867-4.59a3.763,3.763,0,0,1,.765,1.26Q54.036-3.834,55.494-4.212Zm-3.636,2.79a2.307,2.307,0,0,0,.252-.954A31.72,31.72,0,0,0,48.618-.612q-.09.054-.306.162Q47.286.162,46.719.5t-1.413.927a11.5,11.5,0,0,0-1.476,1.2A9.788,9.788,0,0,0,42.7,3.942a3.128,3.128,0,0,0-.4.594.507.507,0,0,0,.225-.018q.135-.036.315-.1a1.635,1.635,0,0,1,.2-.063,17.882,17.882,0,0,0,2.214-.864A18.746,18.746,0,0,0,50.67.054,6.5,6.5,0,0,0,51.858-1.422Zm5.58-.756a.2.2,0,0,1,.3-.018.19.19,0,0,1,.063.288A4.85,4.85,0,0,1,55.89-.2q-.954.4-1.422.036a.736.736,0,0,1-.2-.279,1.031,1.031,0,0,1-.081-.351,2.164,2.164,0,0,1,.018-.387,2.684,2.684,0,0,1,.072-.369q.045-.162.1-.324a3.744,3.744,0,0,1,.423-.756,6.4,6.4,0,0,1,.468-.6q.189-.207.6-.639.09-.108.225-.009t.045.207q-.774,1.008-.918,1.224-.792,1.26-.468,1.746a.3.3,0,0,0,.18.135.592.592,0,0,0,.252,0,2.112,2.112,0,0,0,.279-.072,2.137,2.137,0,0,0,.279-.117q.144-.072.234-.126l.18-.108A7.218,7.218,0,0,0,57.438-2.178ZM56.3-6.084a.151.151,0,0,1-.216-.045.133.133,0,0,1,.018-.207,2.278,2.278,0,0,1,1.08-.522.172.172,0,0,1,.2.054.2.2,0,0,1,.045.189.192.192,0,0,1-.135.135A3.872,3.872,0,0,0,56.3-6.084Zm5.49,4.14a.249.249,0,0,1,.387.009.242.242,0,0,1-.009.387A6.548,6.548,0,0,1,60.9-.477a1.566,1.566,0,0,1-1.287.315.533.533,0,0,1-.36-.225.664.664,0,0,1-.108-.36,1.645,1.645,0,0,1,.081-.459,3.766,3.766,0,0,1,.18-.486q.1-.216.207-.477a2.711,2.711,0,0,0,.144-.423,1.676,1.676,0,0,1-.972-.648q-.252.486-.9,1.827T56.844.63A.158.158,0,0,1,56.628.7.152.152,0,0,1,56.52.5,25.336,25.336,0,0,1,58.734-4.32a.258.258,0,0,1,.369-.108q.243.108.153.324a.628.628,0,0,0,.126.684,1.066,1.066,0,0,0,.684.36q.27.018.27.27a1.472,1.472,0,0,1-.081.369q-.081.261-.189.522a5.586,5.586,0,0,0-.189.531,2.666,2.666,0,0,0-.1.423.183.183,0,0,0,.09.207.493.493,0,0,0,.207-.009.939.939,0,0,0,.234-.09Q60.426-.9,60.588-1t.288-.189q.126-.09.279-.216l.252-.207q.1-.081.225-.2A1.09,1.09,0,0,1,61.794-1.944Zm4.536-1.53a.735.735,0,0,1,.441.63,2.257,2.257,0,0,1-.126,1.026A7.984,7.984,0,0,1,66.231-.81a5.406,5.406,0,0,1-.405.7.205.205,0,0,1-.288.072.18.18,0,0,1-.072-.27.83.83,0,0,1,.081-.207q.081-.171.135-.3t.153-.342a2.432,2.432,0,0,0,.144-.387l.1-.378a1.455,1.455,0,0,0,.054-.36,1.467,1.467,0,0,0-.027-.288.361.361,0,0,0-.126-.216.4.4,0,0,0-.261-.081,1.538,1.538,0,0,0-1.1.5,5.925,5.925,0,0,0-.954,1.08.305.305,0,0,1-.351.135.221.221,0,0,1-.207-.279q.018-.18.063-.522t.063-.522A4.421,4.421,0,0,0,62.01-1.278a.3.3,0,0,1-.387.108.237.237,0,0,1-.171-.342q.054-.126.189-.495t.216-.549q.081-.18.216-.459a2.4,2.4,0,0,1,.3-.477.134.134,0,0,1,.144-.054.111.111,0,0,1,.09.126,4.374,4.374,0,0,1-.108.7,4.447,4.447,0,0,1,1.044-.594.247.247,0,0,1,.225,0,.318.318,0,0,1,.144.162.387.387,0,0,1,.027.216,4.937,4.937,0,0,0-.072.5,4.447,4.447,0,0,1,.828-.63Q65.826-3.672,66.33-3.474Zm4.626,1.386a.207.207,0,0,1,.3-.063.189.189,0,0,1,.081.279,4.267,4.267,0,0,1-1.692,1.6,2.472,2.472,0,0,1-2.124.18,1.023,1.023,0,0,1-.729-.9A2.086,2.086,0,0,1,67.1-2.268a2.938,2.938,0,0,1,.837-.954,1.71,1.71,0,0,1,.8-.261,1.2,1.2,0,0,1,.783.225.557.557,0,0,1,.126.882,1.751,1.751,0,0,1-.972.621,1.89,1.89,0,0,1-1.17-.027,1.054,1.054,0,0,0-.036.765.705.705,0,0,0,.594.477A2.283,2.283,0,0,0,69.1-.666,3.445,3.445,0,0,0,70.956-2.088Zm-3.33.036q-.018,0-.036.054A2.409,2.409,0,0,0,68.8-2.34q.972-.5-.036-.648Q68.148-3.1,67.626-2.052ZM73.71-8.8q-.054.144-.243.63t-.252.666q-.063.18-.234.621t-.252.666L72.5-5.6q-.144.4-.234.675t-.189.63q-.1.351-.189.675-.018.09-.072.27t-.108.342q-.054.162-.108.387t-.09.414a3.941,3.941,0,0,0-.054.4,1.562,1.562,0,0,0,.009.378,1.42,1.42,0,0,0,.081.306.451.451,0,0,0,.18.216.659.659,0,0,0,.288.1q.684.072,2.79-1.566a.3.3,0,0,1,.45.054q.162.18-.036.378-.234.216-.495.432t-.693.54a6.9,6.9,0,0,1-.828.54,6.749,6.749,0,0,1-.819.378,1.763,1.763,0,0,1-.8.126,1,1,0,0,1-.63-.288A.828.828,0,0,1,70.767-.5a1.806,1.806,0,0,1-.09-.3,1.418,1.418,0,0,1-.009-.369q.018-.234.036-.342t.072-.36a2.3,2.3,0,0,0,.054-.306,24.117,24.117,0,0,1,.954-3.438q1.854-5.184,5.112-12.4a.151.151,0,0,1,.216-.063q.144.063.09.189-.252.738-.549,1.539l-.558,1.5q-.261.7-.594,1.539l-.594,1.494L74.3-10.3Q73.962-9.432,73.71-8.8Zm4.1,6.624a.2.2,0,0,1,.3-.018.19.19,0,0,1,.063.288A4.85,4.85,0,0,1,76.266-.2q-.954.4-1.422.036a.736.736,0,0,1-.2-.279,1.031,1.031,0,0,1-.081-.351,2.164,2.164,0,0,1,.018-.387,2.684,2.684,0,0,1,.072-.369q.045-.162.1-.324a3.745,3.745,0,0,1,.423-.756,6.4,6.4,0,0,1,.468-.6q.189-.207.6-.639.09-.108.225-.009t.045.207q-.774,1.008-.918,1.224-.792,1.26-.468,1.746a.3.3,0,0,0,.18.135.592.592,0,0,0,.252,0,2.112,2.112,0,0,0,.279-.072,2.137,2.137,0,0,0,.279-.117q.144-.072.234-.126l.18-.108A7.218,7.218,0,0,0,77.814-2.178ZM76.68-6.084a.151.151,0,0,1-.216-.045.133.133,0,0,1,.018-.207,2.278,2.278,0,0,1,1.08-.522.172.172,0,0,1,.2.054.2.2,0,0,1,.045.189.192.192,0,0,1-.135.135A3.872,3.872,0,0,0,76.68-6.084Zm3.69,3.456q.216-.162.4.081t-.018.405q-.27.252-.837.756t-.855.756A3.046,3.046,0,0,1,79.272.864a1.616,1.616,0,0,1-.684,1.179,2.328,2.328,0,0,1-1.386.423.735.735,0,0,1-.657-.279.856.856,0,0,1-.126-.648A2.1,2.1,0,0,1,76.7.81,8.075,8.075,0,0,1,78.12-.846q-.162-.288-.234-.441a3.713,3.713,0,0,1-.153-.4,1.338,1.338,0,0,1-.072-.477,1.631,1.631,0,0,1,.1-.486,3.32,3.32,0,0,1,1.3-1.584.2.2,0,0,1,.3.054.223.223,0,0,1-.009.306l-.135.144q-.117.126-.153.171t-.144.162a2.079,2.079,0,0,0-.153.18q-.045.063-.117.18t-.117.2a1.883,1.883,0,0,0-.09.189.979.979,0,0,0-.063.216,1.455,1.455,0,0,0,.306,1.116Q78.894-1.494,80.37-2.628Zm-2.448,4.3q.936-.468.54-1.746-.324.306-.468.45l-.225.216a3.308,3.308,0,0,0-.3.315,1.148,1.148,0,0,0-.162.261q-.216.432-.117.567a.271.271,0,0,0,.279.108A1.482,1.482,0,0,0,77.922,1.674Z" transform="translate(1.674 18.102)"/></svg>