<svg xmlns="http://www.w3.org/2000/svg" viewBox="0 0 26.561 12.62"><defs><style>.a{fill:rgba(255,255,255,0.5);}.b{fill:#fff;}</style></defs><g transform="translate(-12413.72 37.62)"><path class="a" d="M5.68-5.456v.96H3.6v2.4H2.48V-4.5H.4v-.96H2.48v-2.4H3.6v2.4Z" transform="translate(12424 -26)"/><path class="b" d="M4.96-2.3V-5a.581.581,0,0,0-.12-.43.661.661,0,0,0-.44-.11H2.78a1.8,1.8,0,0,1-2.06-2v-3.1q0-1.98,2.16-1.98h2.2q2.16,0,2.16,1.98v1.76H4.92v-1.44a.581.581,0,0,0-.12-.43.661.661,0,0,0-.44-.11H3.6a.7.7,0,0,0-.46.11.581.581,0,0,0-.12.43v2.54a.581.581,0,0,0,.12.43.7.7,0,0,0,.46.11H5.18q2.1,0,2.1,1.96v3.3Q7.28,0,5.1,0H2.94Q.76,0,.76-1.98V-3.72h2.3V-2.3a.581.581,0,0,0,.12.43.7.7,0,0,0,.46.11H4.4a.661.661,0,0,0,.44-.11A.581.581,0,0,0,4.96-2.3Z" transform="translate(12413 -25)"/><path class="b" d="M4.96-2.3V-5a.581.581,0,0,0-.12-.43.661.661,0,0,0-.44-.11H2.78a1.8,1.8,0,0,1-2.06-2v-3.1q0-1.98,2.16-1.98h2.2q2.16,0,2.16,1.98v1.76H4.92v-1.44a.581.581,0,0,0-.12-.43.661.661,0,0,0-.44-.11H3.6a.7.7,0,0,0-.46.11.581.581,0,0,0-.12.43v2.54a.581.581,0,0,0,.12.43.7.7,0,0,0,.46.11H5.18q2.1,0,2.1,1.96v3.3Q7.28,0,5.1,0H2.94Q.76,0,.76-1.98V-3.72h2.3V-2.3a.581.581,0,0,0,.12.43.7.7,0,0,0,.46.11H4.4a.661.661,0,0,0,.44-.11A.581.581,0,0,0,4.96-2.3Z" transform="translate(12433 -25)"/></g></svg>